<svg width="16" height="16" viewBox="0 0 16 16" fill="none" xmlns="http://www.w3.org/2000/svg">
<g clip-path="url(#clip0_5163_7867)">
<path fill-rule="evenodd" clip-rule="evenodd" d="M7.9987 1.33594C11.6807 1.33594 14.6654 4.3206 14.6654 8.0026C14.6677 9.5412 14.1356 11.0329 13.16 12.2226L13.1734 12.2373L13.0854 12.3119C12.4602 13.0514 11.6811 13.6455 10.8025 14.0527C9.92393 14.4598 8.96705 14.6703 7.9987 14.6693C6.03204 14.6693 4.26537 13.8179 3.04537 12.4646L2.91204 12.3113L2.82404 12.2379L2.83737 12.2219C1.86188 11.0324 1.32979 9.54098 1.33204 8.0026C1.33204 4.3206 4.3167 1.33594 7.9987 1.33594ZM7.9987 11.3359C6.7587 11.3359 5.63804 11.7306 4.80337 12.2726C5.7249 12.9644 6.84643 13.3376 7.9987 13.3359C9.15098 13.3376 10.2725 12.9644 11.194 12.2726C10.2402 11.6617 9.1314 11.3367 7.9987 11.3359ZM7.9987 2.66927C6.99505 2.66924 6.01176 2.95241 5.16185 3.48624C4.31194 4.02006 3.62991 4.78287 3.19414 5.68699C2.75838 6.5911 2.58657 7.59983 2.69847 8.59722C2.81037 9.59461 3.20143 10.5402 3.8267 11.3253C4.90737 10.5499 6.38204 10.0026 7.9987 10.0026C9.61537 10.0026 11.09 10.5499 12.1707 11.3253C12.796 10.5402 13.187 9.59461 13.2989 8.59722C13.4108 7.59983 13.239 6.5911 12.8033 5.68699C12.3675 4.78287 11.6855 4.02006 10.8356 3.48624C9.98565 2.95241 9.00236 2.66924 7.9987 2.66927ZM7.9987 4.0026C8.70595 4.0026 9.38423 4.28356 9.88432 4.78365C10.3844 5.28375 10.6654 5.96203 10.6654 6.66927C10.6654 7.37651 10.3844 8.05479 9.88432 8.55489C9.38423 9.05499 8.70595 9.33594 7.9987 9.33594C7.29146 9.33594 6.61318 9.05499 6.11309 8.55489C5.61299 8.05479 5.33204 7.37651 5.33204 6.66927C5.33204 5.96203 5.61299 5.28375 6.11309 4.78365C6.61318 4.28356 7.29146 4.0026 7.9987 4.0026ZM7.9987 5.33594C7.64508 5.33594 7.30594 5.47641 7.0559 5.72646C6.80585 5.97651 6.66537 6.31565 6.66537 6.66927C6.66537 7.02289 6.80585 7.36203 7.0559 7.61208C7.30594 7.86213 7.64508 8.0026 7.9987 8.0026C8.35233 8.0026 8.69146 7.86213 8.94151 7.61208C9.19156 7.36203 9.33204 7.02289 9.33204 6.66927C9.33204 6.31565 9.19156 5.97651 8.94151 5.72646C8.69146 5.47641 8.35233 5.33594 7.9987 5.33594Z" fill="#0A0D12"/>
</g>
<defs>
<clipPath id="clip0_5163_7867">
<rect width="16" height="16" fill="white"/>
</clipPath>
</defs>
</svg>
