<svg width="24" height="24" viewBox="0 0 24 24" fill="none" xmlns="http://www.w3.org/2000/svg">
<rect width="24" height="24" fill="#0A0D12"/>
<g clip-path="url(#clip0_5296_8562)">
<path d="M6.95417 6.14776C6.95875 6.2332 6.94586 6.31869 6.91631 6.39899C6.88676 6.47929 6.84116 6.55273 6.7823 6.61484C6.72343 6.67694 6.65253 6.72639 6.57392 6.76019C6.49531 6.79399 6.41064 6.81142 6.32507 6.81142C6.23951 6.81142 6.15484 6.79399 6.07623 6.76019C5.99762 6.72639 5.92672 6.67694 5.86785 6.61484C5.80898 6.55273 5.76338 6.47929 5.73383 6.39899C5.70428 6.31869 5.6914 6.2332 5.69597 6.14776V3.63046C5.6914 3.54501 5.70428 3.45953 5.73383 3.37923C5.76338 3.29893 5.80898 3.22549 5.86785 3.16338C5.92672 3.10128 5.99762 3.05183 6.07623 3.01803C6.15484 2.98423 6.23951 2.9668 6.32507 2.9668C6.41064 2.9668 6.49531 2.98423 6.57392 3.01803C6.65253 3.05183 6.72343 3.10128 6.7823 3.16338C6.84116 3.22549 6.88676 3.29893 6.91631 3.37923C6.94586 3.45953 6.95875 3.54501 6.95417 3.63046V6.14776ZM6.95417 20.3705C6.95875 20.4559 6.94586 20.5414 6.91631 20.6217C6.88676 20.702 6.84116 20.7754 6.7823 20.8375C6.72343 20.8996 6.65253 20.9491 6.57392 20.9829C6.49531 21.0167 6.41064 21.0341 6.32507 21.0341C6.23951 21.0341 6.15484 21.0167 6.07623 20.9829C5.99762 20.9491 5.92672 20.8996 5.86785 20.8375C5.80898 20.7754 5.76338 20.702 5.73383 20.6217C5.70428 20.5414 5.6914 20.4559 5.69597 20.3705L5.69597 7.97656C5.6914 7.89111 5.70428 7.80563 5.73383 7.72533C5.76338 7.64503 5.80898 7.57159 5.86785 7.50948C5.92672 7.44738 5.99762 7.39793 6.07623 7.36413C6.15484 7.33033 6.23951 7.3129 6.32507 7.3129C6.41064 7.3129 6.49531 7.33033 6.57392 7.36413C6.65253 7.39793 6.72343 7.44738 6.7823 7.50948C6.84116 7.57159 6.88676 7.64503 6.91631 7.72533C6.94586 7.80563 6.95875 7.89111 6.95417 7.97656L6.95417 20.3705ZM12.5954 6.14776C12.5986 6.23244 12.5847 6.31689 12.5545 6.39606C12.5243 6.47524 12.4784 6.54751 12.4196 6.60855C12.3609 6.66959 12.2904 6.71814 12.2124 6.75131C12.1344 6.78447 12.0506 6.80157 11.9658 6.80157C11.8811 6.80157 11.7972 6.78447 11.7192 6.75131C11.6413 6.71814 11.5708 6.66959 11.512 6.60855C11.4532 6.54751 11.4074 6.47524 11.3772 6.39606C11.347 6.31689 11.3331 6.23244 11.3363 6.14776V3.63046C11.3331 3.54578 11.347 3.46133 11.3772 3.38216C11.4074 3.30298 11.4532 3.23071 11.512 3.16967C11.5708 3.10863 11.6413 3.06008 11.7192 3.02691C11.7972 2.99375 11.8811 2.97665 11.9658 2.97665C12.0506 2.97665 12.1344 2.99375 12.2124 3.02691C12.2904 3.06008 12.3609 3.10863 12.4196 3.16967C12.4784 3.23071 12.5243 3.30298 12.5545 3.38216C12.5847 3.46133 12.5986 3.54578 12.5954 3.63046V6.14776ZM12.5954 20.3705C12.5986 20.4551 12.5847 20.5396 12.5545 20.6188C12.5243 20.6979 12.4784 20.7702 12.4196 20.8312C12.3609 20.8923 12.2904 20.9408 12.2124 20.974C12.1344 21.0072 12.0506 21.0243 11.9658 21.0243C11.8811 21.0243 11.7972 21.0072 11.7192 20.974C11.6413 20.9408 11.5708 20.8923 11.512 20.8312C11.4532 20.7702 11.4074 20.6979 11.3772 20.6188C11.347 20.5396 11.3331 20.4551 11.3363 20.3705V7.97566C11.3331 7.89098 11.347 7.80653 11.3772 7.72736C11.4074 7.64818 11.4532 7.57591 11.512 7.51487C11.5708 7.45383 11.6413 7.40528 11.7192 7.37211C11.7972 7.33895 11.8811 7.32185 11.9658 7.32185C12.0506 7.32185 12.1344 7.33895 12.2124 7.37211C12.2904 7.40528 12.3609 7.45383 12.4196 7.51487C12.4784 7.57591 12.5243 7.64818 12.5545 7.72736C12.5847 7.80653 12.5986 7.89098 12.5954 7.97566V20.3705ZM18.296 6.14776C18.3005 6.2332 18.2877 6.31869 18.2581 6.39899C18.2286 6.47929 18.183 6.55273 18.1241 6.61484C18.0652 6.67694 17.9943 6.72639 17.9157 6.76019C17.8371 6.79399 17.7524 6.81142 17.6669 6.81142C17.5813 6.81142 17.4966 6.79399 17.418 6.76019C17.3394 6.72639 17.2685 6.67694 17.2097 6.61484C17.1508 6.55273 17.1052 6.47929 17.0756 6.39899C17.0461 6.31869 17.0332 6.2332 17.0378 6.14776V3.63046C17.0332 3.54501 17.0461 3.45953 17.0756 3.37923C17.1052 3.29893 17.1508 3.22549 17.2097 3.16338C17.2685 3.10128 17.3394 3.05183 17.418 3.01803C17.4966 2.98423 17.5813 2.9668 17.6669 2.9668C17.7524 2.9668 17.8371 2.98423 17.9157 3.01803C17.9943 3.05183 18.0652 3.10128 18.1241 3.16338C18.183 3.22549 18.2286 3.29893 18.2581 3.37923C18.2877 3.45953 18.3005 3.54501 18.296 3.63046V6.14776ZM18.296 20.3705C18.3005 20.4559 18.2877 20.5414 18.2581 20.6217C18.2286 20.702 18.183 20.7754 18.1241 20.8375C18.0652 20.8996 17.9943 20.9491 17.9157 20.9829C17.8371 21.0167 17.7524 21.0341 17.6669 21.0341C17.5813 21.0341 17.4966 21.0167 17.418 20.9829C17.3394 20.9491 17.2685 20.8996 17.2097 20.8375C17.1508 20.7754 17.1052 20.702 17.0756 20.6217C17.0461 20.5414 17.0332 20.4559 17.0378 20.3705V7.97566C17.0332 7.89021 17.0461 7.80473 17.0756 7.72443C17.1052 7.64413 17.1508 7.57068 17.2097 7.50858C17.2685 7.44648 17.3394 7.39703 17.418 7.36323C17.4966 7.32943 17.5813 7.312 17.6669 7.312C17.7524 7.312 17.8371 7.32943 17.9157 7.36323C17.9943 7.39703 18.0652 7.44648 18.1241 7.50858C18.183 7.57068 18.2286 7.64413 18.2581 7.72443C18.2877 7.80473 18.3005 7.89021 18.296 7.97566V20.3705Z" fill="white"/>
</g>
<defs>
<clipPath id="clip0_5296_8562">
<rect width="18" height="18" fill="white" transform="matrix(0 1 -1 0 21 3)"/>
</clipPath>
</defs>
</svg>
