<svg width="24" height="24" viewBox="0 0 24 24" fill="none" xmlns="http://www.w3.org/2000/svg">
<rect x="0.5" y="0.5" width="23" height="23" stroke="#0A0D12"/>
<g clip-path="url(#clip0_5296_8558)">
<path d="M6.14776 17.0458C6.2332 17.0413 6.31869 17.0541 6.39899 17.0837C6.47929 17.1132 6.55273 17.1588 6.61484 17.2177C6.67694 17.2766 6.72639 17.3475 6.76019 17.4261C6.79399 17.5047 6.81142 17.5894 6.81142 17.6749C6.81142 17.7605 6.79399 17.8452 6.76019 17.9238C6.72639 18.0024 6.67694 18.0733 6.61484 18.1321C6.55273 18.191 6.47929 18.2366 6.39899 18.2662C6.31869 18.2957 6.2332 18.3086 6.14776 18.304H3.63046C3.54501 18.3086 3.45953 18.2957 3.37923 18.2662C3.29893 18.2366 3.22549 18.191 3.16338 18.1321C3.10128 18.0733 3.05183 18.0024 3.01803 17.9238C2.98423 17.8452 2.9668 17.7605 2.9668 17.6749C2.9668 17.5894 2.98423 17.5047 3.01803 17.4261C3.05183 17.3475 3.10128 17.2766 3.16338 17.2177C3.22549 17.1588 3.29893 17.1132 3.37923 17.0837C3.45953 17.0541 3.54501 17.0413 3.63046 17.0458H6.14776ZM20.3705 17.0458C20.4559 17.0413 20.5414 17.0541 20.6217 17.0837C20.702 17.1132 20.7754 17.1588 20.8375 17.2177C20.8996 17.2766 20.9491 17.3475 20.9829 17.4261C21.0167 17.5047 21.0341 17.5894 21.0341 17.6749C21.0341 17.7605 21.0167 17.8452 20.9829 17.9238C20.9491 18.0024 20.8996 18.0733 20.8375 18.1321C20.7754 18.191 20.702 18.2366 20.6217 18.2662C20.5414 18.2957 20.4559 18.3086 20.3705 18.304H7.97656C7.89111 18.3086 7.80563 18.2957 7.72533 18.2662C7.64503 18.2366 7.57159 18.191 7.50948 18.1321C7.44738 18.0733 7.39793 18.0024 7.36413 17.9238C7.33033 17.8452 7.3129 17.7605 7.3129 17.6749C7.3129 17.5894 7.33033 17.5047 7.36413 17.4261C7.39793 17.3475 7.44738 17.2766 7.50948 17.2177C7.57159 17.1588 7.64503 17.1132 7.72533 17.0837C7.80563 17.0541 7.89111 17.0413 7.97656 17.0458H20.3705ZM6.14776 11.4046C6.23244 11.4014 6.31689 11.4153 6.39606 11.4455C6.47524 11.4757 6.54751 11.5216 6.60855 11.5804C6.66959 11.6391 6.71814 11.7096 6.75131 11.7876C6.78447 11.8656 6.80157 11.9494 6.80157 12.0342C6.80157 12.1189 6.78447 12.2028 6.75131 12.2808C6.71814 12.3587 6.66959 12.4292 6.60855 12.488C6.54751 12.5468 6.47524 12.5926 6.39606 12.6228C6.31689 12.653 6.23244 12.6669 6.14776 12.6637H3.63046C3.54578 12.6669 3.46133 12.653 3.38216 12.6228C3.30298 12.5926 3.23071 12.5468 3.16967 12.488C3.10863 12.4292 3.06008 12.3587 3.02691 12.2808C2.99375 12.2028 2.97665 12.1189 2.97665 12.0342C2.97665 11.9494 2.99375 11.8656 3.02691 11.7876C3.06008 11.7096 3.10863 11.6391 3.16967 11.5804C3.23071 11.5216 3.30298 11.4757 3.38216 11.4455C3.46133 11.4153 3.54578 11.4014 3.63046 11.4046H6.14776ZM20.3705 11.4046C20.4551 11.4014 20.5396 11.4153 20.6188 11.4455C20.6979 11.4757 20.7702 11.5216 20.8312 11.5804C20.8923 11.6391 20.9408 11.7096 20.974 11.7876C21.0072 11.8656 21.0243 11.9494 21.0243 12.0342C21.0243 12.1189 21.0072 12.2028 20.974 12.2808C20.9408 12.3587 20.8923 12.4292 20.8312 12.488C20.7702 12.5468 20.6979 12.5926 20.6188 12.6228C20.5396 12.653 20.4551 12.6669 20.3705 12.6637H7.97566C7.89098 12.6669 7.80653 12.653 7.72736 12.6228C7.64818 12.5926 7.57591 12.5468 7.51487 12.488C7.45383 12.4292 7.40528 12.3587 7.37211 12.2808C7.33895 12.2028 7.32185 12.1189 7.32185 12.0342C7.32185 11.9494 7.33895 11.8656 7.37211 11.7876C7.40528 11.7096 7.45383 11.6391 7.51487 11.5804C7.57591 11.5216 7.64818 11.4757 7.72736 11.4455C7.80653 11.4153 7.89098 11.4014 7.97566 11.4046H20.3705ZM6.14776 5.70403C6.2332 5.69945 6.31869 5.71233 6.39899 5.74188C6.47929 5.77144 6.55273 5.81703 6.61484 5.8759C6.67694 5.93477 6.72639 6.00567 6.76019 6.08428C6.79399 6.16289 6.81142 6.24756 6.81142 6.33312C6.81142 6.41869 6.79399 6.50336 6.76019 6.58197C6.72639 6.66058 6.67694 6.73148 6.61484 6.79035C6.55273 6.84922 6.47929 6.89481 6.39899 6.92436C6.31869 6.95392 6.2332 6.9668 6.14776 6.96222H3.63046C3.54501 6.9668 3.45953 6.95392 3.37923 6.92436C3.29893 6.89481 3.22549 6.84922 3.16338 6.79035C3.10128 6.73148 3.05183 6.66058 3.01803 6.58197C2.98423 6.50336 2.9668 6.41869 2.9668 6.33312C2.9668 6.24756 2.98423 6.16289 3.01803 6.08428C3.05183 6.00567 3.10128 5.93477 3.16338 5.8759C3.22549 5.81703 3.29893 5.77144 3.37923 5.74188C3.45953 5.71233 3.54501 5.69945 3.63046 5.70403H6.14776ZM20.3705 5.70403C20.4559 5.69945 20.5414 5.71233 20.6217 5.74188C20.702 5.77144 20.7754 5.81703 20.8375 5.8759C20.8996 5.93477 20.9491 6.00567 20.9829 6.08428C21.0167 6.16289 21.0341 6.24756 21.0341 6.33312C21.0341 6.41869 21.0167 6.50336 20.9829 6.58197C20.9491 6.66058 20.8996 6.73148 20.8375 6.79035C20.7754 6.84922 20.702 6.89481 20.6217 6.92436C20.5414 6.95392 20.4559 6.9668 20.3705 6.96222H7.97566C7.89021 6.9668 7.80473 6.95392 7.72443 6.92436C7.64413 6.89481 7.57068 6.84922 7.50858 6.79035C7.44648 6.73148 7.39703 6.66058 7.36323 6.58197C7.32943 6.50336 7.312 6.41869 7.312 6.33312C7.312 6.24756 7.32943 6.16289 7.36323 6.08428C7.39703 6.00567 7.44648 5.93477 7.50858 5.8759C7.57068 5.81703 7.64413 5.77144 7.72443 5.74188C7.80473 5.71233 7.89021 5.69945 7.97566 5.70403H20.3705Z" fill="#0A0D12"/>
</g>
<defs>
<clipPath id="clip0_5296_8558">
<rect width="18" height="18" fill="white" transform="translate(3 3)"/>
</clipPath>
</defs>
</svg>
