<svg width="24" height="24" viewBox="0 0 24 24" fill="none" xmlns="http://www.w3.org/2000/svg">
<path d="M5.8125 10.8739C5.66332 10.8739 5.52024 10.8146 5.41475 10.7091C5.30926 10.6036 5.25 10.4606 5.25 10.3114V5.8125C5.25 5.66332 5.30926 5.52024 5.41475 5.41475C5.52024 5.30926 5.66332 5.25 5.8125 5.25H10.3125C10.4617 5.25 10.6048 5.30926 10.7102 5.41475C10.8157 5.52024 10.875 5.66332 10.875 5.8125V10.3114C10.875 10.4606 10.8157 10.6036 10.7102 10.7091C10.6048 10.8146 10.4617 10.8739 10.3125 10.8739H5.8125ZM13.6875 10.8739C13.5383 10.8739 13.3952 10.8146 13.2898 10.7091C13.1843 10.6036 13.125 10.4606 13.125 10.3114V5.8125C13.125 5.66332 13.1843 5.52024 13.2898 5.41475C13.3952 5.30926 13.5383 5.25 13.6875 5.25H18.1864C18.3356 5.25 18.4786 5.30926 18.5841 5.41475C18.6896 5.52024 18.7489 5.66332 18.7489 5.8125V10.3114C18.7489 10.4606 18.6896 10.6036 18.5841 10.7091C18.4786 10.8146 18.3356 10.8739 18.1864 10.8739H13.6875ZM5.8125 18.7489C5.66332 18.7489 5.52024 18.6896 5.41475 18.5841C5.30926 18.4786 5.25 18.3356 5.25 18.1864V13.6864C5.25 13.5372 5.30926 13.3941 5.41475 13.2886C5.52024 13.1831 5.66332 13.1239 5.8125 13.1239H10.3125C10.4617 13.1239 10.6048 13.1831 10.7102 13.2886C10.8157 13.3941 10.875 13.5372 10.875 13.6864V18.1864C10.875 18.3356 10.8157 18.4786 10.7102 18.5841C10.6048 18.6896 10.4617 18.7489 10.3125 18.7489H5.8125ZM13.6875 18.7489C13.5383 18.7489 13.3952 18.6896 13.2898 18.5841C13.1843 18.4786 13.125 18.3356 13.125 18.1864V13.6864C13.125 13.5372 13.1843 13.3941 13.2898 13.2886C13.3952 13.1831 13.5383 13.1239 13.6875 13.1239H18.1864C18.3356 13.1239 18.4786 13.1831 18.5841 13.2886C18.6896 13.3941 18.7489 13.5372 18.7489 13.6864V18.1864C18.7489 18.3356 18.6896 18.4786 18.5841 18.5841C18.4786 18.6896 18.3356 18.7489 18.1864 18.7489H13.6875Z" fill="#0A0D12"/>
<rect x="0.5" y="0.5" width="23" height="23" stroke="#0A0D12"/>
</svg>
