<svg width="28" height="28" viewBox="0 0 28 28" fill="none" xmlns="http://www.w3.org/2000/svg">
<path d="M16.9173 10.5007C16.9173 12.1115 15.6115 13.4173 14.0007 13.4173C12.3898 13.4173 11.084 12.1115 11.084 10.5007C11.084 8.88982 12.3898 7.58398 14.0007 7.58398C15.6115 7.58398 16.9173 8.88982 16.9173 10.5007Z" stroke="#0A0D12" stroke-width="1.5"/>
<path d="M15.4676 20.4099C15.0741 20.7888 14.5482 21.0007 14.0009 21.0007C13.4535 21.0007 12.9276 20.7888 12.534 20.4099C8.93067 16.9183 4.10171 13.0177 6.45665 7.355C7.72993 4.29319 10.7864 2.33398 14.0009 2.33398C17.2153 2.33398 20.2717 4.2932 21.545 7.355C23.897 13.0106 19.0799 16.9303 15.4676 20.4099Z" stroke="#0A0D12" stroke-width="1.5"/>
<path d="M21 23.333C21 24.6217 17.866 25.6663 14 25.6663C10.134 25.6663 7 24.6217 7 23.333" stroke="#0A0D12" stroke-width="1.5" stroke-linecap="round"/>
</svg>
