<svg width="28" height="28" viewBox="0 0 28 28" fill="none" xmlns="http://www.w3.org/2000/svg">
<path d="M2.33398 7L10.3992 11.5698C13.3725 13.2545 14.6288 13.2545 17.6022 11.5698L25.6673 7" stroke="#0A0D12" stroke-width="1.5" stroke-linejoin="round"/>
<path d="M2.35238 15.7222C2.42865 19.2987 2.46679 21.0869 3.78644 22.4116C5.10608 23.7363 6.9427 23.7823 10.616 23.8746C12.8798 23.9316 15.1215 23.9316 17.3854 23.8746C21.0586 23.7823 22.8952 23.7363 24.2149 22.4116C25.5346 21.0869 25.5727 19.2987 25.6489 15.7222C25.6735 14.5722 25.6735 13.4291 25.6489 12.2791C25.5727 8.70265 25.5346 6.91442 24.2149 5.58976C22.8952 4.26509 21.0586 4.21895 17.3854 4.12665C15.1215 4.06976 12.8798 4.06976 10.6159 4.12664C6.9427 4.21892 5.10608 4.26506 3.78643 5.58974C2.46677 6.91441 2.42865 8.70264 2.35237 12.2791C2.32785 13.4291 2.32786 14.5722 2.35238 15.7222Z" stroke="#0A0D12" stroke-width="1.5" stroke-linejoin="round"/>
</svg>
