<svg width="100" height="100" viewBox="0 0 100 100" fill="none" xmlns="http://www.w3.org/2000/svg">
<circle cx="50" cy="50" r="50" fill="#F3F4F6"/>
<path d="M27.5288 32.5V30.625H26.0432L25.7035 32.0712L27.5288 32.5ZM49.9935 75.0002L49.6002 76.8335L49.9935 76.918L50.387 76.8335L49.9935 75.0002ZM72.4587 32.5L74.284 32.0712L73.9442 30.625H72.4587V32.5ZM49.9937 23.125C45.0765 23.125 41.24 25.2546 37.853 27.1044C34.3719 29.0057 31.3431 30.625 27.5288 30.625V34.375C32.4343 34.375 36.2654 32.2443 39.6505 30.3956C43.1297 28.4954 46.166 26.875 49.9937 26.875V23.125ZM49.9937 26.875C53.8395 26.875 56.8792 28.4963 60.353 30.3952C63.734 32.2434 67.5572 34.375 72.4587 34.375V30.625C68.65 30.625 65.6307 29.0066 62.1517 27.1048C58.7655 25.2537 54.928 23.125 49.9937 23.125V26.875ZM75.6125 42.4685C75.5562 39.1221 75.1225 35.6414 74.284 32.0712L70.6332 32.9288C71.4137 36.251 71.8115 39.4653 71.863 42.5315L75.6125 42.4685ZM28.1245 42.5315C28.176 39.4653 28.5737 36.251 29.3541 32.9288L25.7035 32.0712C24.8649 35.6414 24.4312 39.1221 24.375 42.4685L28.1245 42.5315ZM50.387 73.167C44.0154 71.7998 38.7356 68.4977 34.9197 63.8155L32.0128 66.1845C36.3725 71.534 42.4028 75.289 49.6002 76.8335L50.387 73.167ZM50.387 76.8335C57.5845 75.289 63.6147 71.534 67.9745 66.1845L65.0675 63.8155C61.2515 68.4977 55.9717 71.7998 49.6002 73.167L50.387 76.8335Z" fill="#0A0D12"/>
<path d="M65 50L68.75 53.75M68.75 53.75L72.5 57.5M68.75 53.75L72.5 50M68.75 53.75L65 57.5M52.5 50L56.25 53.75M56.25 53.75L60 57.5M56.25 53.75L60 50M56.25 53.75L52.5 57.5M40 50L43.75 53.75M43.75 53.75L47.5 57.5M43.75 53.75L47.5 50M43.75 53.75L40 57.5M27.5 50L31.25 53.75M31.25 53.75L35 57.5M31.25 53.75L35 50M31.25 53.75L27.5 57.5" stroke="#0A0D12" stroke-width="1.5" stroke-linejoin="round"/>
</svg>
