<svg width="23" height="25" viewBox="0 0 23 25" fill="none" xmlns="http://www.w3.org/2000/svg">
<path d="M22.9864 12.7651C22.9874 11.9716 22.9199 11.1795 22.7845 10.3975H11.7266V14.8821H18.06C17.9304 15.5983 17.6561 16.2811 17.2536 16.8892C16.8512 17.4974 16.3288 18.0183 15.7182 18.4206V21.3316H19.4981C21.7113 19.3052 22.9864 16.3085 22.9864 12.7651Z" fill="#4285F4"/>
<path d="M11.7226 24.1441C14.8869 24.1441 17.5512 23.1123 19.4941 21.3333L15.7142 18.4223C14.6622 19.1306 13.3072 19.5349 11.7226 19.5349C8.66419 19.5349 6.06826 17.4875 5.13998 14.7285H1.24609V17.7285C2.22204 19.657 3.71854 21.2782 5.56852 22.4111C7.41851 23.544 9.54917 24.144 11.7226 24.1441Z" fill="#34A853"/>
<path d="M5.14246 14.7295C4.65171 13.2838 4.65171 11.7182 5.14246 10.2724V7.27246H1.24857C0.427575 8.8948 0 10.6853 0 12.501C0 14.3167 0.427575 16.1072 1.24857 17.7295L5.14246 14.7295Z" fill="#FBBC04"/>
<path d="M11.7226 5.46536C13.3948 5.43823 15.0106 6.06564 16.2207 7.21198L19.5674 3.88855C17.4453 1.90918 14.6339 0.822466 11.7226 0.856233C9.54917 0.856331 7.41851 1.45632 5.56852 2.5892C3.71854 3.72209 2.22204 5.34329 1.24609 7.27181L5.13998 10.2718C6.06826 7.51278 8.66419 5.46536 11.7226 5.46536Z" fill="#EA4335"/>
</svg>
