<svg width="24" height="24" viewBox="0 0 24 24" fill="none" xmlns="http://www.w3.org/2000/svg">
<g clip-path="url(#clip0_5163_10287)">
<path d="M9.05985 3.8521C9.05985 3.71292 8.94696 3.59949 8.80793 3.60591C8.17695 3.63505 7.55515 3.7735 6.9704 4.01571C6.30796 4.2901 5.70606 4.69229 5.19905 5.19929C4.69204 5.7063 4.28986 6.3082 4.01547 6.97064C3.74108 7.63308 3.59985 8.34308 3.59985 9.06009C3.59985 9.77711 3.74108 10.4871 4.01547 11.1495C4.28986 11.812 4.69204 12.4139 5.19905 12.9209C5.70606 13.4279 6.30796 13.8301 6.9704 14.1045C7.55515 14.3467 8.17695 14.4851 8.80793 14.5143C8.94696 14.5207 9.05985 14.4073 9.05985 14.2681L9.05985 3.8521Z" fill="url(#paint0_linear_5163_10287)"/>
<path d="M20.1478 9.06009C20.287 9.06009 20.4004 8.94721 20.394 8.80818C20.3649 8.1772 20.2264 7.55539 19.9842 6.97064C19.7098 6.30821 19.3077 5.7063 18.8006 5.19929C18.2936 4.69229 17.6917 4.29011 17.0293 4.01572C16.3669 3.74132 15.6569 3.6001 14.9398 3.6001C14.2228 3.6001 13.5128 3.74132 12.8504 4.01571C12.188 4.29011 11.5861 4.69229 11.079 5.19929C10.572 5.7063 10.1699 6.30821 9.89546 6.97064C9.65325 7.55539 9.5148 8.1772 9.48566 8.80818C9.47924 8.9472 9.59267 9.06009 9.73185 9.06009L20.1478 9.06009Z" fill="url(#paint1_linear_5163_10287)"/>
<path d="M14.9398 20.1481C14.9398 20.2873 15.0527 20.4007 15.1918 20.3943C15.8227 20.3651 16.4445 20.2267 17.0293 19.9845C17.6917 19.7101 18.2936 19.3079 18.8006 18.8009C19.3076 18.2939 19.7098 17.692 19.9842 17.0295C20.2586 16.3671 20.3998 15.6571 20.3998 14.9401C20.3998 14.2231 20.2586 13.5131 19.9842 12.8506C19.7098 12.1882 19.3077 11.5863 18.8006 11.0793C18.2936 10.5723 17.6917 10.1701 17.0293 9.89571C16.4445 9.6535 15.8227 9.51505 15.1918 9.4859C15.0527 9.47948 14.9398 9.59291 14.9398 9.73209L14.9398 20.1481Z" fill="url(#paint2_linear_5163_10287)"/>
<path d="M3.85185 14.9401C3.71268 14.9401 3.59925 15.053 3.60567 15.192C3.63481 15.823 3.77326 16.4448 4.01547 17.0295C4.28986 17.692 4.69204 18.2939 5.19905 18.8009C5.70606 19.3079 6.30796 19.7101 6.9704 19.9845C7.63284 20.2589 8.34283 20.4001 9.05985 20.4001C9.77687 20.4001 10.4869 20.2589 11.1493 19.9845C11.8117 19.7101 12.4136 19.3079 12.9206 18.8009C13.4277 18.2939 13.8298 17.692 14.1042 17.0295C14.3464 16.4448 14.4849 15.823 14.514 15.192C14.5205 15.053 14.407 14.9401 14.2678 14.9401L3.85185 14.9401Z" fill="url(#paint3_linear_5163_10287)"/>
</g>
<defs>
<linearGradient id="paint0_linear_5163_10287" x1="3.59985" y1="12.0001" x2="20.3998" y2="12.0001" gradientUnits="userSpaceOnUse">
<stop stop-color="#6740D0"/>
<stop offset="1" stop-color="#726EFC"/>
</linearGradient>
<linearGradient id="paint1_linear_5163_10287" x1="3.59985" y1="12.0001" x2="20.3998" y2="12.0001" gradientUnits="userSpaceOnUse">
<stop stop-color="#6740D0"/>
<stop offset="1" stop-color="#726EFC"/>
</linearGradient>
<linearGradient id="paint2_linear_5163_10287" x1="3.59985" y1="12.0001" x2="20.3998" y2="12.0001" gradientUnits="userSpaceOnUse">
<stop stop-color="#6740D0"/>
<stop offset="1" stop-color="#726EFC"/>
</linearGradient>
<linearGradient id="paint3_linear_5163_10287" x1="3.59985" y1="12.0001" x2="20.3998" y2="12.0001" gradientUnits="userSpaceOnUse">
<stop stop-color="#6740D0"/>
<stop offset="1" stop-color="#726EFC"/>
</linearGradient>
<clipPath id="clip0_5163_10287">
<rect width="16.8" height="16.8" fill="white" transform="translate(3.59985 3.6001)"/>
</clipPath>
</defs>
</svg>
