<svg width="24" height="24" viewBox="0 0 24 24" fill="none" xmlns="http://www.w3.org/2000/svg">
<g clip-path="url(#clip0_5378_125)">
<mask id="mask0_5378_125" style="mask-type:luminance" maskUnits="userSpaceOnUse" x="-1" y="0" width="25" height="24">
<path d="M23.4615 0.269531H-0.00012207V23.7311H23.4615V0.269531Z" fill="white"/>
</mask>
<g mask="url(#mask0_5378_125)">
<path d="M14.8255 13.3681C16.0555 9.3796 16.3183 5.10214 15.6262 0.987337C14.4081 0.554642 13.0969 0.318359 11.7304 0.318359C8.65282 0.318359 5.85486 1.51342 3.77368 3.46414C5.47327 4.03711 7.10207 4.92163 8.5212 5.90536C11.2927 7.82658 13.4629 10.6392 14.8255 13.3681Z" fill="#2051FF"/>
<path d="M19.8482 3.61816C19.2635 9.80143 17.4233 15.8674 14.4421 21.3171C11.4598 15.9082 6.32308 11.1734 0.461422 9.03778C0.220552 9.97055 0.0922852 10.9486 0.0922852 11.9566C0.0922852 18.3841 5.30283 23.5946 11.7304 23.5946C18.1579 23.5946 23.3684 18.3841 23.3684 11.9566C23.3684 8.68663 22.0193 5.73229 19.8482 3.61816Z" fill="#2051FF"/>
</g>
</g>
<defs>
<clipPath id="clip0_5378_125">
<rect width="24" height="24" fill="white"/>
</clipPath>
</defs>
</svg>
