<svg width="24" height="24" viewBox="0 0 24 24" fill="none" xmlns="http://www.w3.org/2000/svg">
<path d="M15.3255 13.3676C16.5555 9.37912 16.8183 5.10166 16.1262 0.986849C14.9081 0.554153 13.5969 0.317871 12.2304 0.317871C9.15282 0.317871 6.35486 1.51293 4.27368 3.46365C5.97327 4.03662 7.60207 4.92114 9.0212 5.90487C11.7927 7.82609 13.9629 10.6387 15.3255 13.3676Z" fill="white"/>
<path d="M20.3482 3.61719C19.7635 9.80045 17.9233 15.8664 14.9421 21.3161C11.9598 15.9072 6.82308 11.1724 0.961422 9.0368C0.720552 9.96957 0.592285 10.9476 0.592285 11.9556C0.592285 18.3831 5.80283 23.5936 12.2304 23.5936C18.6579 23.5936 23.8684 18.3831 23.8684 11.9556C23.8684 8.68565 22.5193 5.73131 20.3482 3.61719Z" fill="white"/>
</svg>
