<svg width="100" height="100" viewBox="0 0 100 100" fill="none" xmlns="http://www.w3.org/2000/svg">
<g clip-path="url(#clip0_5457_152)">
<mask id="mask0_5457_152" style="mask-type:luminance" maskUnits="userSpaceOnUse" x="-1" y="1" width="99" height="98">
<path d="M97.7561 1.12109H-0.000488281V98.8777H97.7561V1.12109Z" fill="white"/>
</mask>
<g mask="url(#mask0_5457_152)">
<path d="M61.7728 55.6977C66.8978 39.0789 67.9931 21.2562 65.1093 4.11114C60.0337 2.30824 54.5706 1.32373 48.8765 1.32373C36.0534 1.32373 24.3952 6.30314 15.7236 14.4311C22.8053 16.8185 29.5919 20.504 35.5049 24.6029C47.0531 32.608 56.0956 44.3274 61.7728 55.6977Z" fill="#4B1AB3"/>
<path d="M82.7009 15.0718C80.265 40.8354 72.5972 66.1101 60.1756 88.8173C47.7493 66.2801 26.3464 46.5519 1.92284 37.6535C0.919213 41.5401 0.384766 45.6151 0.384766 49.8151C0.384766 76.5963 22.0954 98.3069 48.8768 98.3069C75.6581 98.3069 97.3687 76.5963 97.3687 49.8151C97.3687 36.1904 91.7475 23.8806 82.7009 15.0718Z" fill="#4B1AB3"/>
</g>
</g>
<defs>
<clipPath id="clip0_5457_152">
<rect width="100" height="100" fill="white"/>
</clipPath>
</defs>
</svg>
