<svg width="100" height="100" viewBox="0 0 100 100" fill="none" xmlns="http://www.w3.org/2000/svg">
<g clip-path="url(#clip0_5459_173)">
<mask id="mask0_5459_173" style="mask-type:luminance" maskUnits="userSpaceOnUse" x="-1" y="1" width="99" height="98">
<path d="M97.7562 1.12109H-0.000366211V98.8777H97.7562V1.12109Z" fill="white"/>
</mask>
<g mask="url(#mask0_5459_173)">
<path d="M61.7728 55.6972C66.8978 39.0784 67.9931 21.2557 65.1093 4.11065C60.0337 2.30775 54.5706 1.32324 48.8765 1.32324C36.0534 1.32324 24.3952 6.30265 15.7236 14.4306C22.8053 16.818 29.5919 20.5035 35.5049 24.6024C47.0531 32.6075 56.0956 44.3269 61.7728 55.6972Z" fill="#2051FF"/>
<path d="M82.7009 15.0713C80.265 40.8349 72.5972 66.1096 60.1756 88.8168C47.7493 66.2796 26.3464 46.5514 1.92284 37.653C0.919213 41.5396 0.384766 45.6146 0.384766 49.8146C0.384766 76.5958 22.0954 98.3065 48.8768 98.3065C75.6581 98.3065 97.3687 76.5958 97.3687 49.8146C97.3687 36.1899 91.7475 23.8801 82.7009 15.0713Z" fill="#2051FF"/>
</g>
</g>
<defs>
<clipPath id="clip0_5459_173">
<rect width="100" height="100" fill="white"/>
</clipPath>
</defs>
</svg>
