<svg width="40" height="40" viewBox="0 0 40 40" fill="none" xmlns="http://www.w3.org/2000/svg">
<g clip-path="url(#clip0_5359_4662)">
<mask id="mask0_5359_4662" style="mask-type:luminance" maskUnits="userSpaceOnUse" x="0" y="0" width="40" height="40">
<path d="M39.1026 0.448242H0V39.5509H39.1026V0.448242Z" fill="white"/>
</mask>
<g mask="url(#mask0_5359_4662)">
<path d="M24.7092 22.2789C26.7592 15.6314 27.1973 8.50227 26.0438 1.64426C24.0136 0.923101 21.8283 0.529297 19.5507 0.529297C14.4214 0.529297 9.75819 2.52106 6.28955 5.77226C9.1222 6.72721 11.8369 8.20141 14.2021 9.84096C18.8213 13.043 22.4383 17.7307 24.7092 22.2789Z" fill="white"/>
<path d="M33.0808 6.02832C32.1064 16.3338 29.0393 26.4436 24.0706 35.5265C19.1001 26.5116 10.539 18.6204 0.769526 15.061C0.368076 16.6156 0.154297 18.2456 0.154297 19.9256C0.154297 30.6381 8.83854 39.3224 19.5511 39.3224C30.2636 39.3224 38.9479 30.6381 38.9479 19.9256C38.9479 14.4758 36.6994 9.55186 33.0808 6.02832Z" fill="white"/>
</g>
</g>
<defs>
<clipPath id="clip0_5359_4662">
<rect width="40" height="40" fill="white"/>
</clipPath>
</defs>
</svg>
